<mxfile host="Electron" modified="2024-07-10T08:39:17.747Z" agent="Mozilla/5.0 (Windows NT 10.0; Win64; x64) AppleWebKit/537.36 (KHTML, like Gecko) draw.io/22.0.2 Chrome/114.0.5735.289 Electron/25.8.4 Safari/537.36" etag="7YxblK609DMHh6Erz5yP" version="22.0.2" type="device" pages="4">
  <diagram name="Oefenopdracht" id="ODNF4XINtCy3tp5ZJBbH">
    <mxGraphModel dx="996" dy="1107" grid="1" gridSize="10" guides="1" tooltips="1" connect="1" arrows="1" fold="1" page="1" pageScale="1" pageWidth="1169" pageHeight="1654" math="0" shadow="0">
      <root>
        <mxCell id="0" />
        <mxCell id="ysWkRd8DMei_cLwrsCP3-50" value="Bg" parent="0" />
        <mxCell id="ysWkRd8DMei_cLwrsCP3-51" value="&lt;p style=&quot;margin:0px;margin-top:4px;margin-left:10px;text-align:left;&quot;&gt;&lt;b style=&quot;border-color: var(--border-color);&quot;&gt;act&lt;/b&gt;&amp;nbsp;Portfolio Item maken van oefenopdracht&lt;br&gt;&lt;/p&gt;" style="html=1;shape=mxgraph.sysml.package;html=1;overflow=fill;whiteSpace=wrap;labelX=270.67;" parent="ysWkRd8DMei_cLwrsCP3-50" vertex="1">
          <mxGeometry x="300" y="520" width="430" height="1210" as="geometry" />
        </mxCell>
        <mxCell id="ysWkRd8DMei_cLwrsCP3-52" value="" style="html=1;shape=mxgraph.sysml.actFinal;strokeWidth=2;verticalLabelPosition=bottom;verticalAlignment=top;" parent="ysWkRd8DMei_cLwrsCP3-50" vertex="1">
          <mxGeometry x="440" y="1670" width="40" height="40" as="geometry" />
        </mxCell>
        <mxCell id="ysWkRd8DMei_cLwrsCP3-53" style="edgeStyle=orthogonalEdgeStyle;rounded=0;orthogonalLoop=1;jettySize=auto;html=1;" parent="ysWkRd8DMei_cLwrsCP3-50" source="ysWkRd8DMei_cLwrsCP3-47" target="ysWkRd8DMei_cLwrsCP3-52" edge="1">
          <mxGeometry relative="1" as="geometry" />
        </mxCell>
        <mxCell id="1" value="Fg" parent="0" />
        <mxCell id="ysWkRd8DMei_cLwrsCP3-27" style="edgeStyle=orthogonalEdgeStyle;rounded=0;orthogonalLoop=1;jettySize=auto;html=1;strokeColor=#3333FF;" parent="1" source="ysWkRd8DMei_cLwrsCP3-10" target="ysWkRd8DMei_cLwrsCP3-34" edge="1">
          <mxGeometry relative="1" as="geometry">
            <mxPoint x="460" y="627" as="targetPoint" />
          </mxGeometry>
        </mxCell>
        <mxCell id="ysWkRd8DMei_cLwrsCP3-10" value="" style="shape=ellipse;html=1;fillColor=strokeColor;strokeWidth=2;verticalLabelPosition=bottom;verticalAlignment=top;perimeter=ellipsePerimeter;" parent="1" vertex="1">
          <mxGeometry x="440" y="561" width="40" height="40" as="geometry" />
        </mxCell>
        <mxCell id="ysWkRd8DMei_cLwrsCP3-19" style="edgeStyle=orthogonalEdgeStyle;rounded=0;orthogonalLoop=1;jettySize=auto;html=1;strokeColor=#3333FF;" parent="1" source="ysWkRd8DMei_cLwrsCP3-14" target="ysWkRd8DMei_cLwrsCP3-22" edge="1">
          <mxGeometry relative="1" as="geometry">
            <mxPoint x="292.5" y="947" as="targetPoint" />
          </mxGeometry>
        </mxCell>
        <mxCell id="ysWkRd8DMei_cLwrsCP3-20" value="[else]" style="edgeLabel;html=1;align=center;verticalAlign=middle;resizable=0;points=[];" parent="ysWkRd8DMei_cLwrsCP3-19" vertex="1" connectable="0">
          <mxGeometry x="-0.0232" relative="1" as="geometry">
            <mxPoint x="-1" y="-10" as="offset" />
          </mxGeometry>
        </mxCell>
        <mxCell id="ysWkRd8DMei_cLwrsCP3-14" value="" style="rhombus;whiteSpace=wrap;html=1;strokeColor=#3333FF;" parent="1" vertex="1">
          <mxGeometry x="440.01" y="747" width="40" height="40" as="geometry" />
        </mxCell>
        <mxCell id="ysWkRd8DMei_cLwrsCP3-42" style="edgeStyle=orthogonalEdgeStyle;rounded=0;orthogonalLoop=1;jettySize=auto;html=1;strokeColor=#3333FF;" parent="1" source="ysWkRd8DMei_cLwrsCP3-16" target="ysWkRd8DMei_cLwrsCP3-21" edge="1">
          <mxGeometry relative="1" as="geometry">
            <Array as="points">
              <mxPoint x="640" y="1100" />
            </Array>
          </mxGeometry>
        </mxCell>
        <mxCell id="ysWkRd8DMei_cLwrsCP3-16" value="Je hebt &lt;b&gt;iets goed te maken&lt;/b&gt; voor leeruitkomst 7: Organiserend vermogen" style="rounded=1;whiteSpace=wrap;html=1;strokeColor=#3333FF;" parent="1" vertex="1">
          <mxGeometry x="560" y="957" width="160" height="60" as="geometry" />
        </mxCell>
        <mxCell id="ysWkRd8DMei_cLwrsCP3-17" value="[&lt;b&gt;link&lt;/b&gt; en &lt;b&gt;commit&lt;/b&gt; beide&lt;br&gt;aanwezig, uitwerking is &quot;&lt;b&gt;substantieel&lt;/b&gt;&quot;]" style="edgeStyle=orthogonalEdgeStyle;rounded=0;orthogonalLoop=1;jettySize=auto;html=1;" parent="1" source="ysWkRd8DMei_cLwrsCP3-14" target="ysWkRd8DMei_cLwrsCP3-36" edge="1">
          <mxGeometry x="-0.1749" relative="1" as="geometry">
            <mxPoint x="470" y="757" as="sourcePoint" />
            <mxPoint x="460" y="877" as="targetPoint" />
            <Array as="points">
              <mxPoint x="460" y="830" />
              <mxPoint x="460" y="830" />
            </Array>
            <mxPoint as="offset" />
          </mxGeometry>
        </mxCell>
        <mxCell id="ysWkRd8DMei_cLwrsCP3-43" style="edgeStyle=orthogonalEdgeStyle;rounded=0;orthogonalLoop=1;jettySize=auto;html=1;strokeColor=#3333FF;" parent="1" source="ysWkRd8DMei_cLwrsCP3-21" target="ysWkRd8DMei_cLwrsCP3-29" edge="1">
          <mxGeometry relative="1" as="geometry" />
        </mxCell>
        <mxCell id="ysWkRd8DMei_cLwrsCP3-21" value="De docent geeft je de &lt;b&gt;uitwerkingen&lt;/b&gt;" style="rounded=1;whiteSpace=wrap;html=1;strokeColor=#3333FF;" parent="1" vertex="1">
          <mxGeometry x="387.51" y="1070" width="145" height="60" as="geometry" />
        </mxCell>
        <mxCell id="ysWkRd8DMei_cLwrsCP3-23" style="edgeStyle=orthogonalEdgeStyle;rounded=0;orthogonalLoop=1;jettySize=auto;html=1;strokeColor=#3333FF;" parent="1" source="ysWkRd8DMei_cLwrsCP3-22" target="ysWkRd8DMei_cLwrsCP3-34" edge="1">
          <mxGeometry relative="1" as="geometry">
            <mxPoint x="164.6666259765625" y="607" as="targetPoint" />
            <Array as="points">
              <mxPoint x="643" y="677" />
            </Array>
          </mxGeometry>
        </mxCell>
        <mxCell id="ysWkRd8DMei_cLwrsCP3-22" value="De docent vraagt je om je inlevering te &lt;b&gt;verbeteren&lt;/b&gt;" style="rounded=1;whiteSpace=wrap;html=1;strokeColor=#3333FF;" parent="1" vertex="1">
          <mxGeometry x="570" y="737" width="145" height="60" as="geometry" />
        </mxCell>
        <mxCell id="ysWkRd8DMei_cLwrsCP3-44" style="edgeStyle=orthogonalEdgeStyle;rounded=0;orthogonalLoop=1;jettySize=auto;html=1;strokeColor=#3333FF;" parent="1" source="ysWkRd8DMei_cLwrsCP3-29" target="ysWkRd8DMei_cLwrsCP3-32" edge="1">
          <mxGeometry relative="1" as="geometry" />
        </mxCell>
        <mxCell id="ysWkRd8DMei_cLwrsCP3-29" value="Je &lt;b&gt;kijkt jezelf na&lt;/b&gt;. In de canvas comments zet je een &lt;b&gt;samenvatting &lt;/b&gt;van wat je daarvan nog hebt geleerd&amp;nbsp;" style="rounded=1;whiteSpace=wrap;html=1;strokeColor=#3333FF;" parent="1" vertex="1">
          <mxGeometry x="387.5" y="1170" width="145" height="80" as="geometry" />
        </mxCell>
        <mxCell id="ysWkRd8DMei_cLwrsCP3-55" style="edgeStyle=orthogonalEdgeStyle;rounded=0;orthogonalLoop=1;jettySize=auto;html=1;strokeColor=#00CC00;" parent="1" source="ysWkRd8DMei_cLwrsCP3-32" target="ysWkRd8DMei_cLwrsCP3-54" edge="1">
          <mxGeometry relative="1" as="geometry" />
        </mxCell>
        <mxCell id="ysWkRd8DMei_cLwrsCP3-32" value="De docent geeft een &lt;b&gt;thumbs up&lt;/b&gt; en evt. additionele feedback." style="rounded=1;whiteSpace=wrap;html=1;strokeColor=#00CC00;" parent="1" vertex="1">
          <mxGeometry x="387.51" y="1290" width="145" height="60" as="geometry" />
        </mxCell>
        <mxCell id="ysWkRd8DMei_cLwrsCP3-35" style="edgeStyle=orthogonalEdgeStyle;rounded=0;orthogonalLoop=1;jettySize=auto;html=1;strokeColor=#3333FF;" parent="1" source="ysWkRd8DMei_cLwrsCP3-34" target="ysWkRd8DMei_cLwrsCP3-14" edge="1">
          <mxGeometry relative="1" as="geometry" />
        </mxCell>
        <mxCell id="ysWkRd8DMei_cLwrsCP3-34" value="Je levert de gemaakte opdracht in &lt;b&gt;op Canvas&lt;/b&gt;:&lt;br&gt;* via een &lt;b&gt;link&lt;/b&gt; naar de uitwerking in je repo&lt;br&gt;* met de &lt;b&gt;commit &lt;/b&gt;van de uitwerking erbij." style="rounded=1;whiteSpace=wrap;html=1;strokeColor=#3333FF;" parent="1" vertex="1">
          <mxGeometry x="331.88" y="647" width="256.25" height="60" as="geometry" />
        </mxCell>
        <mxCell id="ysWkRd8DMei_cLwrsCP3-37" value="[else]" style="edgeStyle=orthogonalEdgeStyle;rounded=0;orthogonalLoop=1;jettySize=auto;html=1;strokeColor=#3333FF;" parent="1" source="ysWkRd8DMei_cLwrsCP3-36" target="ysWkRd8DMei_cLwrsCP3-16" edge="1">
          <mxGeometry x="-0.3043" y="7" relative="1" as="geometry">
            <mxPoint as="offset" />
          </mxGeometry>
        </mxCell>
        <mxCell id="ysWkRd8DMei_cLwrsCP3-40" value="[ je inlevering was &lt;b&gt;op tijd&lt;/b&gt; ]" style="edgeStyle=orthogonalEdgeStyle;rounded=0;orthogonalLoop=1;jettySize=auto;html=1;" parent="1" source="ysWkRd8DMei_cLwrsCP3-36" target="ysWkRd8DMei_cLwrsCP3-38" edge="1">
          <mxGeometry relative="1" as="geometry">
            <mxPoint as="offset" />
          </mxGeometry>
        </mxCell>
        <mxCell id="ysWkRd8DMei_cLwrsCP3-36" value="" style="rhombus;whiteSpace=wrap;html=1;strokeColor=#3333FF;" parent="1" vertex="1">
          <mxGeometry x="440" y="867" width="40" height="40" as="geometry" />
        </mxCell>
        <mxCell id="ysWkRd8DMei_cLwrsCP3-41" style="edgeStyle=orthogonalEdgeStyle;rounded=0;orthogonalLoop=1;jettySize=auto;html=1;strokeColor=#3333FF;" parent="1" source="ysWkRd8DMei_cLwrsCP3-38" target="ysWkRd8DMei_cLwrsCP3-21" edge="1">
          <mxGeometry relative="1" as="geometry" />
        </mxCell>
        <mxCell id="ysWkRd8DMei_cLwrsCP3-38" value="Dat is gunstig &lt;br&gt;voor &lt;b&gt;leeruitkomst 7&lt;/b&gt;: Organiserend vermogen" style="rounded=1;whiteSpace=wrap;html=1;strokeColor=#3333FF;" parent="1" vertex="1">
          <mxGeometry x="387.51" y="957" width="145" height="60" as="geometry" />
        </mxCell>
        <mxCell id="ysWkRd8DMei_cLwrsCP3-48" style="edgeStyle=orthogonalEdgeStyle;rounded=0;orthogonalLoop=1;jettySize=auto;html=1;strokeColor=#00CC00;" parent="1" source="ysWkRd8DMei_cLwrsCP3-45" target="ysWkRd8DMei_cLwrsCP3-47" edge="1">
          <mxGeometry relative="1" as="geometry" />
        </mxCell>
        <mxCell id="ysWkRd8DMei_cLwrsCP3-45" value="Nu is een link naar deze&amp;nbsp; inlevering op canvas&amp;nbsp; bruikbaar geworden als &lt;b&gt;portfolio item&lt;/b&gt;." style="rounded=1;whiteSpace=wrap;html=1;strokeColor=#00CC00;" parent="1" vertex="1">
          <mxGeometry x="387.51" y="1450" width="145" height="80" as="geometry" />
        </mxCell>
        <mxCell id="ysWkRd8DMei_cLwrsCP3-59" style="rounded=0;orthogonalLoop=1;jettySize=auto;html=1;endArrow=none;endFill=0;dashed=1;strokeColor=#00CC00;" parent="1" source="ysWkRd8DMei_cLwrsCP3-47" target="ysWkRd8DMei_cLwrsCP3-58" edge="1">
          <mxGeometry relative="1" as="geometry" />
        </mxCell>
        <mxCell id="ysWkRd8DMei_cLwrsCP3-47" value="Update je &lt;b&gt;verantwoordingsdocument&lt;/b&gt; ermee, met:&amp;nbsp;&lt;br&gt;1. &lt;b&gt;Naam&lt;/b&gt; van het item.&lt;br&gt;2. &lt;b&gt;Link&lt;/b&gt; naar de canvas entry&lt;br&gt;3. Kopie van je &lt;b&gt;samenvatting en docentfeedback&lt;/b&gt;." style="rounded=1;whiteSpace=wrap;html=1;strokeColor=#00CC00;" parent="1" vertex="1">
          <mxGeometry x="316.89" y="1570" width="286.24" height="70" as="geometry" />
        </mxCell>
        <mxCell id="ysWkRd8DMei_cLwrsCP3-56" style="edgeStyle=orthogonalEdgeStyle;rounded=0;orthogonalLoop=1;jettySize=auto;html=1;strokeColor=#00CC00;" parent="1" source="ysWkRd8DMei_cLwrsCP3-54" target="ysWkRd8DMei_cLwrsCP3-45" edge="1">
          <mxGeometry relative="1" as="geometry" />
        </mxCell>
        <mxCell id="ysWkRd8DMei_cLwrsCP3-54" value="Voeg een regeltje toe met &lt;b&gt;leerdoel-annotaties&lt;/b&gt; (@22:1)" style="rounded=1;whiteSpace=wrap;html=1;strokeColor=#00CC00;" parent="1" vertex="1">
          <mxGeometry x="380" y="1380" width="160" height="40" as="geometry" />
        </mxCell>
        <mxCell id="ysWkRd8DMei_cLwrsCP3-58" value="Als je de leerdoel-annotaties goed hebt bijgehouden, kun je profiteren van &lt;b&gt;automatisering&lt;/b&gt; van het verzamelen van portfolio items, en kun je dit uitstellen tot een paar dagen voor het peilmoment" style="shape=note;size=15;align=left;spacingLeft=10;html=1;whiteSpace=wrap;strokeColor=#00CC00;" parent="1" vertex="1">
          <mxGeometry x="555" y="1390" width="160" height="160" as="geometry" />
        </mxCell>
        <mxCell id="Sf9cwtR-Fi4fmyw53hga-1" value="&lt;u&gt;Voorbeeld van canvas inlevering:&lt;br&gt;&lt;/u&gt;&lt;br&gt;&lt;font style=&quot;font-size: 13px;&quot;&gt;Practicum Weerstandsnetwerkjes&amp;nbsp; (@22,23)&lt;/font&gt;&lt;br&gt;&lt;b&gt;Commentaren op opdracht&lt;br&gt;&lt;/b&gt;&lt;br&gt;&lt;b&gt;[jij] &lt;/b&gt;(voor de deadline)&lt;br&gt;&lt;b&gt;link&lt;/b&gt; naar de uitwerking:&lt;br&gt;https://github.com/myrepo/inlevering.md&lt;br&gt;bijbehorende &lt;b&gt;commit&lt;/b&gt;:&lt;br&gt;https://github.com/myrepo/commit/aa7a5ebf9a20&lt;br&gt;&lt;br&gt;&lt;b&gt;[docent]&lt;br&gt;&lt;/b&gt;Mooi op tijd, ik zie dat je substantieel werk hebt verricht aan de opdracht. Kijk jezelf na met de uitwerkingen: https://canvas.hu.nl/courses/bla/uitwerking.md &lt;br&gt;en maak voeg op deze plaats een samenvatting toe van wat je daar nog uit leerde.&lt;br&gt;&lt;br&gt;&lt;b&gt;[jij]&lt;/b&gt;&lt;br&gt;Mijn extra leerpunten waren:&lt;br&gt;* Ik moet de 3 varianten van de wet van Ohm beter uit mijn hoofd leren, anders maak ik er teveel fouten mee. Dus: V=I*R, I=V/R en R=V/I.&lt;br&gt;* Bij parallelweerstanden moet ik niet vergeten op het laatst nog eens 1/ te doen nadat ik de weerstanden met 1/ bij elkaar heb opgeteld.&lt;br&gt;&lt;br&gt;&lt;b&gt;[docent]&lt;/b&gt;&lt;br&gt;&lt;div&gt;👍&lt;/div&gt;&lt;div&gt;&lt;br&gt;&lt;/div&gt;&lt;div&gt;&lt;b&gt;[jij]&lt;/b&gt;&lt;/div&gt;&lt;div&gt;@22:1, @23:0.6&lt;/div&gt;" style="shape=note;size=15;align=left;spacingLeft=10;html=1;whiteSpace=wrap;strokeColor=#CC00CC;" parent="1" vertex="1">
          <mxGeometry x="760" y="820" width="280" height="480" as="geometry" />
        </mxCell>
      </root>
    </mxGraphModel>
  </diagram>
  <diagram name="Projectbijdrage" id="GqjdN3xZWDFPxIfFXDnr">
    <mxGraphModel dx="996" dy="1107" grid="1" gridSize="10" guides="1" tooltips="1" connect="1" arrows="1" fold="1" page="1" pageScale="1" pageWidth="1169" pageHeight="1654" math="0" shadow="0">
      <root>
        <mxCell id="yRb09nNfUFkDBHJHlKN4-0" />
        <mxCell id="yRb09nNfUFkDBHJHlKN4-1" value="Bg" parent="yRb09nNfUFkDBHJHlKN4-0" />
        <mxCell id="yRb09nNfUFkDBHJHlKN4-2" value="&lt;p style=&quot;margin:0px;margin-top:4px;margin-left:10px;text-align:left;&quot;&gt;&lt;b style=&quot;border-color: var(--border-color);&quot;&gt;act&lt;/b&gt;&amp;nbsp;Portfolio Item maken van een projectbijdrage&lt;br&gt;&lt;/p&gt;" style="html=1;shape=mxgraph.sysml.package;html=1;overflow=fill;whiteSpace=wrap;labelX=282;" parent="yRb09nNfUFkDBHJHlKN4-1" vertex="1">
          <mxGeometry x="300" y="520" width="430" height="1130" as="geometry" />
        </mxCell>
        <mxCell id="yRb09nNfUFkDBHJHlKN4-3" value="" style="html=1;shape=mxgraph.sysml.actFinal;strokeWidth=2;verticalLabelPosition=bottom;verticalAlignment=top;" parent="yRb09nNfUFkDBHJHlKN4-1" vertex="1">
          <mxGeometry x="440" y="1590" width="40" height="40" as="geometry" />
        </mxCell>
        <mxCell id="yRb09nNfUFkDBHJHlKN4-4" style="edgeStyle=orthogonalEdgeStyle;rounded=0;orthogonalLoop=1;jettySize=auto;html=1;strokeColor=#00CC00;" parent="yRb09nNfUFkDBHJHlKN4-1" source="yRb09nNfUFkDBHJHlKN4-40" target="yRb09nNfUFkDBHJHlKN4-3" edge="1">
          <mxGeometry relative="1" as="geometry" />
        </mxCell>
        <mxCell id="yRb09nNfUFkDBHJHlKN4-5" value="Fg" parent="yRb09nNfUFkDBHJHlKN4-0" />
        <mxCell id="yRb09nNfUFkDBHJHlKN4-12" style="edgeStyle=orthogonalEdgeStyle;rounded=0;orthogonalLoop=1;jettySize=auto;html=1;strokeColor=#3333FF;" parent="yRb09nNfUFkDBHJHlKN4-5" source="yRb09nNfUFkDBHJHlKN4-13" target="yRb09nNfUFkDBHJHlKN4-31" edge="1">
          <mxGeometry relative="1" as="geometry">
            <mxPoint x="460" y="627" as="targetPoint" />
          </mxGeometry>
        </mxCell>
        <mxCell id="yRb09nNfUFkDBHJHlKN4-13" value="" style="shape=ellipse;html=1;fillColor=strokeColor;strokeWidth=2;verticalLabelPosition=bottom;verticalAlignment=top;perimeter=ellipsePerimeter;" parent="yRb09nNfUFkDBHJHlKN4-5" vertex="1">
          <mxGeometry x="440" y="561" width="40" height="40" as="geometry" />
        </mxCell>
        <mxCell id="yRb09nNfUFkDBHJHlKN4-16" style="edgeStyle=orthogonalEdgeStyle;rounded=0;orthogonalLoop=1;jettySize=auto;html=1;strokeColor=#3333FF;" parent="yRb09nNfUFkDBHJHlKN4-5" source="yRb09nNfUFkDBHJHlKN4-18" target="yRb09nNfUFkDBHJHlKN4-25" edge="1">
          <mxGeometry relative="1" as="geometry">
            <mxPoint x="292.5" y="947" as="targetPoint" />
          </mxGeometry>
        </mxCell>
        <mxCell id="yRb09nNfUFkDBHJHlKN4-17" value="[else]" style="edgeLabel;html=1;align=center;verticalAlign=middle;resizable=0;points=[];" parent="yRb09nNfUFkDBHJHlKN4-16" vertex="1" connectable="0">
          <mxGeometry x="-0.0232" relative="1" as="geometry">
            <mxPoint x="-1" y="-10" as="offset" />
          </mxGeometry>
        </mxCell>
        <mxCell id="yRb09nNfUFkDBHJHlKN4-18" value="" style="rhombus;whiteSpace=wrap;html=1;strokeColor=#3333FF;" parent="yRb09nNfUFkDBHJHlKN4-5" vertex="1">
          <mxGeometry x="440.01" y="747" width="40" height="40" as="geometry" />
        </mxCell>
        <mxCell id="yRb09nNfUFkDBHJHlKN4-21" value="[&lt;b&gt;link&lt;/b&gt; en &lt;b&gt;commit&lt;/b&gt;&amp;nbsp;zijn beide aanwezig]" style="edgeStyle=orthogonalEdgeStyle;rounded=0;orthogonalLoop=1;jettySize=auto;html=1;strokeColor=#3333FF;" parent="yRb09nNfUFkDBHJHlKN4-5" source="yRb09nNfUFkDBHJHlKN4-18" target="yRb09nNfUFkDBHJHlKN4-23" edge="1">
          <mxGeometry x="-0.1751" relative="1" as="geometry">
            <mxPoint x="470" y="757" as="sourcePoint" />
            <mxPoint x="460" y="867" as="targetPoint" />
            <Array as="points" />
            <mxPoint as="offset" />
          </mxGeometry>
        </mxCell>
        <mxCell id="CezCnYW5SfnXNdqeZWGn-0" style="edgeStyle=orthogonalEdgeStyle;rounded=0;orthogonalLoop=1;jettySize=auto;html=1;strokeColor=#3333FF;" parent="yRb09nNfUFkDBHJHlKN4-5" source="yRb09nNfUFkDBHJHlKN4-23" target="agb5Eo520hNBIMz5ddLt-1" edge="1">
          <mxGeometry relative="1" as="geometry" />
        </mxCell>
        <mxCell id="yRb09nNfUFkDBHJHlKN4-23" value="Je voegt &lt;b&gt;Review-feedback&lt;/b&gt; toe van een andere student (niet steeds dezelfde) of (mondelinge) van een docent" style="rounded=1;whiteSpace=wrap;html=1;strokeColor=#3333FF;" parent="yRb09nNfUFkDBHJHlKN4-5" vertex="1">
          <mxGeometry x="387.51" y="830" width="145" height="90" as="geometry" />
        </mxCell>
        <mxCell id="yRb09nNfUFkDBHJHlKN4-24" style="edgeStyle=orthogonalEdgeStyle;rounded=0;orthogonalLoop=1;jettySize=auto;html=1;strokeColor=#3333FF;" parent="yRb09nNfUFkDBHJHlKN4-5" source="yRb09nNfUFkDBHJHlKN4-25" target="yRb09nNfUFkDBHJHlKN4-31" edge="1">
          <mxGeometry relative="1" as="geometry">
            <mxPoint x="164.6666259765625" y="607" as="targetPoint" />
            <Array as="points">
              <mxPoint x="643" y="677" />
            </Array>
          </mxGeometry>
        </mxCell>
        <mxCell id="yRb09nNfUFkDBHJHlKN4-25" value="De docent vraagt je om je inlevering te &lt;b&gt;verbeteren&lt;/b&gt;" style="rounded=1;whiteSpace=wrap;html=1;strokeColor=#3333FF;" parent="yRb09nNfUFkDBHJHlKN4-5" vertex="1">
          <mxGeometry x="570" y="737" width="145" height="60" as="geometry" />
        </mxCell>
        <mxCell id="yRb09nNfUFkDBHJHlKN4-28" style="edgeStyle=orthogonalEdgeStyle;rounded=0;orthogonalLoop=1;jettySize=auto;html=1;strokeColor=#00CC00;" parent="yRb09nNfUFkDBHJHlKN4-5" source="yRb09nNfUFkDBHJHlKN4-29" target="yRb09nNfUFkDBHJHlKN4-42" edge="1">
          <mxGeometry relative="1" as="geometry" />
        </mxCell>
        <mxCell id="yRb09nNfUFkDBHJHlKN4-29" value="De docent geeft een &lt;b&gt;thumbs up&lt;/b&gt; en evt. additionele feedback." style="rounded=1;whiteSpace=wrap;html=1;strokeColor=#00CC00;" parent="yRb09nNfUFkDBHJHlKN4-5" vertex="1">
          <mxGeometry x="387.51" y="1230" width="145" height="60" as="geometry" />
        </mxCell>
        <mxCell id="yRb09nNfUFkDBHJHlKN4-30" style="edgeStyle=orthogonalEdgeStyle;rounded=0;orthogonalLoop=1;jettySize=auto;html=1;strokeColor=#3333FF;" parent="yRb09nNfUFkDBHJHlKN4-5" source="yRb09nNfUFkDBHJHlKN4-31" target="yRb09nNfUFkDBHJHlKN4-18" edge="1">
          <mxGeometry relative="1" as="geometry" />
        </mxCell>
        <mxCell id="yRb09nNfUFkDBHJHlKN4-31" value="Je levert je projectbijdrage in&amp;nbsp;&lt;b&gt;op Canvas&lt;/b&gt;:&lt;br&gt;* via een &lt;b&gt;link&lt;/b&gt; naar de uitwerking in je repo&lt;br&gt;* met de &lt;b&gt;commit &lt;/b&gt;van de uitwerking erbij." style="rounded=1;whiteSpace=wrap;html=1;strokeColor=#3333FF;" parent="yRb09nNfUFkDBHJHlKN4-5" vertex="1">
          <mxGeometry x="331.88" y="647" width="256.25" height="60" as="geometry" />
        </mxCell>
        <mxCell id="yRb09nNfUFkDBHJHlKN4-32" value="[else]" style="edgeStyle=orthogonalEdgeStyle;rounded=0;orthogonalLoop=1;jettySize=auto;html=1;" parent="yRb09nNfUFkDBHJHlKN4-5" edge="1">
          <mxGeometry x="-0.3043" y="7" relative="1" as="geometry">
            <mxPoint x="640" y="957" as="targetPoint" />
            <mxPoint as="offset" />
          </mxGeometry>
        </mxCell>
        <mxCell id="yRb09nNfUFkDBHJHlKN4-33" value="[ je inlevering was &lt;b&gt;op tijd&lt;/b&gt; ]" style="edgeStyle=orthogonalEdgeStyle;rounded=0;orthogonalLoop=1;jettySize=auto;html=1;" parent="yRb09nNfUFkDBHJHlKN4-5" edge="1">
          <mxGeometry relative="1" as="geometry">
            <mxPoint x="460" y="957" as="targetPoint" />
            <mxPoint as="offset" />
          </mxGeometry>
        </mxCell>
        <mxCell id="yRb09nNfUFkDBHJHlKN4-37" style="edgeStyle=orthogonalEdgeStyle;rounded=0;orthogonalLoop=1;jettySize=auto;html=1;strokeColor=#00CC00;" parent="yRb09nNfUFkDBHJHlKN4-5" source="yRb09nNfUFkDBHJHlKN4-38" target="yRb09nNfUFkDBHJHlKN4-40" edge="1">
          <mxGeometry relative="1" as="geometry" />
        </mxCell>
        <mxCell id="yRb09nNfUFkDBHJHlKN4-38" value="Nu is een link naar deze&amp;nbsp; inlevering op canvas&amp;nbsp; bruikbaar geworden als &lt;b&gt;portfolio item&lt;/b&gt;." style="rounded=1;whiteSpace=wrap;html=1;strokeColor=#00CC00;" parent="yRb09nNfUFkDBHJHlKN4-5" vertex="1">
          <mxGeometry x="387.51" y="1380" width="145" height="80" as="geometry" />
        </mxCell>
        <mxCell id="yRb09nNfUFkDBHJHlKN4-39" style="rounded=0;orthogonalLoop=1;jettySize=auto;html=1;endArrow=none;endFill=0;dashed=1;strokeColor=#00CC00;" parent="yRb09nNfUFkDBHJHlKN4-5" source="yRb09nNfUFkDBHJHlKN4-40" target="yRb09nNfUFkDBHJHlKN4-43" edge="1">
          <mxGeometry relative="1" as="geometry" />
        </mxCell>
        <mxCell id="yRb09nNfUFkDBHJHlKN4-40" value="Update je &lt;b&gt;verantwoordingsdocument&lt;/b&gt; ermee, met:&amp;nbsp;&lt;br&gt;1. &lt;b&gt;Naam&lt;/b&gt; van het item.&lt;br&gt;2. &lt;b&gt;Link&lt;/b&gt; naar de canvas entry&lt;br&gt;3. Kopie van je &lt;b&gt;samenvatting en docentfeedback&lt;/b&gt;." style="rounded=1;whiteSpace=wrap;html=1;strokeColor=#00CC00;" parent="yRb09nNfUFkDBHJHlKN4-5" vertex="1">
          <mxGeometry x="316.89" y="1490" width="286.24" height="70" as="geometry" />
        </mxCell>
        <mxCell id="yRb09nNfUFkDBHJHlKN4-41" style="edgeStyle=orthogonalEdgeStyle;rounded=0;orthogonalLoop=1;jettySize=auto;html=1;strokeColor=#00CC00;" parent="yRb09nNfUFkDBHJHlKN4-5" source="yRb09nNfUFkDBHJHlKN4-42" target="yRb09nNfUFkDBHJHlKN4-38" edge="1">
          <mxGeometry relative="1" as="geometry" />
        </mxCell>
        <mxCell id="yRb09nNfUFkDBHJHlKN4-42" value="Voeg een regeltje toe met &lt;b&gt;leerdoel-annotaties&lt;/b&gt; (@22:1)" style="rounded=1;whiteSpace=wrap;html=1;strokeColor=#00CC00;" parent="yRb09nNfUFkDBHJHlKN4-5" vertex="1">
          <mxGeometry x="380" y="1310" width="160" height="40" as="geometry" />
        </mxCell>
        <mxCell id="yRb09nNfUFkDBHJHlKN4-43" value="Als je de leerdoel-annotaties goed hebt bijgehouden, kun je profiteren van &lt;b&gt;automatisering&lt;/b&gt; van het verzamelen van portfolio items, en kun je dit uitstellen tot een paar dagen voor het peilmoment" style="shape=note;size=15;align=left;spacingLeft=10;html=1;whiteSpace=wrap;strokeColor=#00CC00;" parent="yRb09nNfUFkDBHJHlKN4-5" vertex="1">
          <mxGeometry x="555" y="1310" width="160" height="160" as="geometry" />
        </mxCell>
        <mxCell id="CezCnYW5SfnXNdqeZWGn-1" style="edgeStyle=orthogonalEdgeStyle;rounded=0;orthogonalLoop=1;jettySize=auto;html=1;strokeColor=#3333FF;" parent="yRb09nNfUFkDBHJHlKN4-5" source="agb5Eo520hNBIMz5ddLt-1" target="agb5Eo520hNBIMz5ddLt-2" edge="1">
          <mxGeometry relative="1" as="geometry" />
        </mxCell>
        <mxCell id="agb5Eo520hNBIMz5ddLt-1" value="Je &lt;b&gt;verbetert&lt;/b&gt; je inlevering met die feedback en upload die opnieuw." style="rounded=1;whiteSpace=wrap;html=1;strokeColor=#3333FF;" parent="yRb09nNfUFkDBHJHlKN4-5" vertex="1">
          <mxGeometry x="387.5" y="940" width="145" height="60" as="geometry" />
        </mxCell>
        <mxCell id="5z2yPBYRXiZXaZdvKDCi-1" style="edgeStyle=orthogonalEdgeStyle;rounded=0;orthogonalLoop=1;jettySize=auto;html=1;strokeColor=#3333FF;" parent="yRb09nNfUFkDBHJHlKN4-5" source="agb5Eo520hNBIMz5ddLt-2" target="5z2yPBYRXiZXaZdvKDCi-0" edge="1">
          <mxGeometry relative="1" as="geometry" />
        </mxCell>
        <mxCell id="agb5Eo520hNBIMz5ddLt-2" value="Je geeft aan &lt;b&gt;welke review-feedback&lt;/b&gt; je wel en welke niet hebt verwerkt en &lt;b&gt;waarom&lt;/b&gt;" style="rounded=1;whiteSpace=wrap;html=1;strokeColor=#3333FF;" parent="yRb09nNfUFkDBHJHlKN4-5" vertex="1">
          <mxGeometry x="387.51" y="1020" width="145" height="60" as="geometry" />
        </mxCell>
        <mxCell id="7T4KoeAFVE62Nup5GKuz-0" value="&lt;u&gt;Voorbeeld van canvas inlevering:&lt;br&gt;&lt;/u&gt;&lt;br&gt;&lt;font style=&quot;font-size: 13px;&quot;&gt;Functionele Requirements&amp;nbsp; (@24)&lt;/font&gt;&lt;br&gt;&lt;b&gt;Commentaren op opdracht&lt;br&gt;&lt;/b&gt;&lt;br&gt;&lt;b&gt;[jij]&lt;/b&gt;&lt;br&gt;&lt;b&gt;link&lt;/b&gt; naar de uitwerking:&lt;br&gt;https://github.com/myrepo/inlevering.md&lt;br&gt;bijbehorende &lt;b&gt;commit&lt;/b&gt;:&lt;br&gt;https://github.com/myrepo/commit/aa7a5ebf9a20&lt;br&gt;&lt;br&gt;&lt;b&gt;[jij]&lt;br&gt;&lt;/b&gt;Het is reviewed door Frits. Hij gaf de volgende feedback:&lt;br&gt;* Je bent vergeten kwantificering toe te voegen.&lt;br&gt;* De ratios die je gebruikt zijn anders verwoorde omschrijvingen. Probeer echt de redenen aan te geven waarom je iets wilt. Bijvoorbeeld automatische lichtregulatie wil je om de groei van planten te optimaliseren.&lt;br&gt;&lt;br&gt;&lt;b&gt;[jij]&lt;/b&gt;&lt;br&gt;Ik heb alle feedback ter harte genomen, behalve de tip over kwantificering. Kwantificering hoort immers thuis bij Niet-Functionele requirements. Het resultaat is te vinden in:&lt;br&gt;&lt;b style=&quot;border-color: var(--border-color);&quot;&gt;&lt;br&gt;link&lt;/b&gt;&amp;nbsp;naar de uitwerking:&lt;br style=&quot;border-color: var(--border-color);&quot;&gt;https://github.com/myrepo/inlevering.md&lt;br style=&quot;border-color: var(--border-color);&quot;&gt;bijbehorende&amp;nbsp;&lt;b style=&quot;border-color: var(--border-color);&quot;&gt;commit&lt;/b&gt;:&lt;br style=&quot;border-color: var(--border-color);&quot;&gt;https://github.com/myrepo/commit/bb8348bf9a22&lt;br&gt;&lt;br&gt;&lt;b&gt;[docent]&lt;/b&gt;&lt;br&gt;&lt;div&gt;👍&lt;/div&gt;&lt;div&gt;&lt;br&gt;&lt;/div&gt;&lt;div&gt;&lt;b&gt;[jij]&lt;/b&gt;&lt;/div&gt;&lt;div&gt;@24:1&lt;/div&gt;" style="shape=note;size=15;align=left;spacingLeft=10;html=1;whiteSpace=wrap;strokeColor=#CC00CC;" parent="yRb09nNfUFkDBHJHlKN4-5" vertex="1">
          <mxGeometry x="760" y="820" width="280" height="590" as="geometry" />
        </mxCell>
        <mxCell id="5z2yPBYRXiZXaZdvKDCi-3" style="edgeStyle=orthogonalEdgeStyle;rounded=0;orthogonalLoop=1;jettySize=auto;html=1;strokeColor=#3333FF;" parent="yRb09nNfUFkDBHJHlKN4-5" source="5z2yPBYRXiZXaZdvKDCi-0" target="yRb09nNfUFkDBHJHlKN4-29" edge="1">
          <mxGeometry relative="1" as="geometry" />
        </mxCell>
        <mxCell id="5z2yPBYRXiZXaZdvKDCi-0" value="Stuur de reviewer het volgende lijstje retour, tbv zijn canvas entry &quot;voor gegeven reviews&quot;:&lt;br&gt;* De &lt;b&gt;naam&lt;/b&gt; van het item waar hij feedback op gaf.&lt;br&gt;* &lt;b&gt;Zijn feedback&lt;/b&gt; daarop&amp;nbsp;&lt;br&gt;* &lt;b&gt;Je samenvatting&lt;/b&gt; van wat je ermee hebt gedaan.&lt;br&gt;* De&amp;nbsp;&lt;b style=&quot;border-color: var(--border-color);&quot;&gt;link&lt;/b&gt;&amp;nbsp;naar deze canvas-entry." style="rounded=1;whiteSpace=wrap;html=1;strokeColor=#3333FF;align=left;" parent="yRb09nNfUFkDBHJHlKN4-5" vertex="1">
          <mxGeometry x="309.89" y="1106" width="300" height="102" as="geometry" />
        </mxCell>
      </root>
    </mxGraphModel>
  </diagram>
  <diagram name="Feedback" id="INeF81cnBdUH2dP7VKLY">
    <mxGraphModel dx="996" dy="1107" grid="1" gridSize="10" guides="1" tooltips="1" connect="1" arrows="1" fold="1" page="1" pageScale="1" pageWidth="1169" pageHeight="1654" math="0" shadow="0">
      <root>
        <mxCell id="OY_f9fm1xXbX0Lxp1W9--0" />
        <mxCell id="OY_f9fm1xXbX0Lxp1W9--1" value="Bg" parent="OY_f9fm1xXbX0Lxp1W9--0" />
        <mxCell id="OY_f9fm1xXbX0Lxp1W9--2" value="&lt;p style=&quot;margin:0px;margin-top:4px;margin-left:10px;text-align:left;&quot;&gt;&lt;b style=&quot;border-color: var(--border-color);&quot;&gt;act&lt;/b&gt;&amp;nbsp;Portfolio Item maken van gegeven review feedback&lt;br&gt;&lt;/p&gt;" style="html=1;shape=mxgraph.sysml.package;html=1;overflow=fill;whiteSpace=wrap;labelX=330;" parent="OY_f9fm1xXbX0Lxp1W9--1" vertex="1">
          <mxGeometry x="290" y="720" width="440" height="880" as="geometry" />
        </mxCell>
        <mxCell id="OY_f9fm1xXbX0Lxp1W9--3" value="" style="html=1;shape=mxgraph.sysml.actFinal;strokeWidth=2;verticalLabelPosition=bottom;verticalAlignment=top;" parent="OY_f9fm1xXbX0Lxp1W9--1" vertex="1">
          <mxGeometry x="440" y="1550" width="40" height="40" as="geometry" />
        </mxCell>
        <mxCell id="OY_f9fm1xXbX0Lxp1W9--4" style="edgeStyle=orthogonalEdgeStyle;rounded=0;orthogonalLoop=1;jettySize=auto;html=1;strokeColor=#00CC00;" parent="OY_f9fm1xXbX0Lxp1W9--1" source="OY_f9fm1xXbX0Lxp1W9--25" target="OY_f9fm1xXbX0Lxp1W9--3" edge="1">
          <mxGeometry relative="1" as="geometry" />
        </mxCell>
        <mxCell id="OY_f9fm1xXbX0Lxp1W9--5" value="Fg" parent="OY_f9fm1xXbX0Lxp1W9--0" />
        <mxCell id="OY_f9fm1xXbX0Lxp1W9--6" style="edgeStyle=orthogonalEdgeStyle;rounded=0;orthogonalLoop=1;jettySize=auto;html=1;strokeColor=#3333FF;" parent="OY_f9fm1xXbX0Lxp1W9--5" source="OY_f9fm1xXbX0Lxp1W9--7" target="OY_f9fm1xXbX0Lxp1W9--19" edge="1">
          <mxGeometry relative="1" as="geometry">
            <mxPoint x="460" y="627" as="targetPoint" />
          </mxGeometry>
        </mxCell>
        <mxCell id="OY_f9fm1xXbX0Lxp1W9--7" value="" style="shape=ellipse;html=1;fillColor=strokeColor;strokeWidth=2;verticalLabelPosition=bottom;verticalAlignment=top;perimeter=ellipsePerimeter;" parent="OY_f9fm1xXbX0Lxp1W9--5" vertex="1">
          <mxGeometry x="439" y="758" width="40" height="40" as="geometry" />
        </mxCell>
        <mxCell id="OY_f9fm1xXbX0Lxp1W9--12" style="edgeStyle=orthogonalEdgeStyle;rounded=0;orthogonalLoop=1;jettySize=auto;html=1;strokeColor=#3333FF;" parent="OY_f9fm1xXbX0Lxp1W9--5" source="hAB9dZT50ngWSqn2VE2v-0" target="OY_f9fm1xXbX0Lxp1W9--30" edge="1">
          <mxGeometry relative="1" as="geometry">
            <mxPoint x="460" y="940" as="sourcePoint" />
          </mxGeometry>
        </mxCell>
        <mxCell id="OY_f9fm1xXbX0Lxp1W9--16" style="edgeStyle=orthogonalEdgeStyle;rounded=0;orthogonalLoop=1;jettySize=auto;html=1;strokeColor=#00CC00;" parent="OY_f9fm1xXbX0Lxp1W9--5" source="OY_f9fm1xXbX0Lxp1W9--17" target="OY_f9fm1xXbX0Lxp1W9--27" edge="1">
          <mxGeometry relative="1" as="geometry" />
        </mxCell>
        <mxCell id="OY_f9fm1xXbX0Lxp1W9--17" value="De docent geeft een &lt;b&gt;thumbs up&lt;/b&gt; en evt. additionele feedback." style="rounded=1;whiteSpace=wrap;html=1;strokeColor=#00CC00;" parent="OY_f9fm1xXbX0Lxp1W9--5" vertex="1">
          <mxGeometry x="387.51" y="1170" width="145" height="60" as="geometry" />
        </mxCell>
        <mxCell id="hAB9dZT50ngWSqn2VE2v-1" style="edgeStyle=orthogonalEdgeStyle;rounded=0;orthogonalLoop=1;jettySize=auto;html=1;" parent="OY_f9fm1xXbX0Lxp1W9--5" source="OY_f9fm1xXbX0Lxp1W9--19" target="hAB9dZT50ngWSqn2VE2v-0" edge="1">
          <mxGeometry relative="1" as="geometry" />
        </mxCell>
        <mxCell id="OY_f9fm1xXbX0Lxp1W9--19" value="Review&lt;b&gt; &lt;/b&gt;een inlevering van een andere student,&lt;br&gt;en &lt;b&gt;stuur &lt;/b&gt;hem &lt;b&gt;je review feedback&lt;/b&gt;." style="rounded=1;whiteSpace=wrap;html=1;strokeColor=#3333FF;" parent="OY_f9fm1xXbX0Lxp1W9--5" vertex="1">
          <mxGeometry x="390" y="827" width="138.12" height="70" as="geometry" />
        </mxCell>
        <mxCell id="OY_f9fm1xXbX0Lxp1W9--20" value="[else]" style="edgeStyle=orthogonalEdgeStyle;rounded=0;orthogonalLoop=1;jettySize=auto;html=1;" parent="OY_f9fm1xXbX0Lxp1W9--5" edge="1">
          <mxGeometry x="-0.3043" y="7" relative="1" as="geometry">
            <mxPoint x="640" y="957" as="targetPoint" />
            <mxPoint as="offset" />
          </mxGeometry>
        </mxCell>
        <mxCell id="OY_f9fm1xXbX0Lxp1W9--21" value="[ je inlevering was &lt;b&gt;op tijd&lt;/b&gt; ]" style="edgeStyle=orthogonalEdgeStyle;rounded=0;orthogonalLoop=1;jettySize=auto;html=1;" parent="OY_f9fm1xXbX0Lxp1W9--5" edge="1">
          <mxGeometry relative="1" as="geometry">
            <mxPoint x="460" y="957" as="targetPoint" />
            <mxPoint as="offset" />
          </mxGeometry>
        </mxCell>
        <mxCell id="OY_f9fm1xXbX0Lxp1W9--22" style="edgeStyle=orthogonalEdgeStyle;rounded=0;orthogonalLoop=1;jettySize=auto;html=1;strokeColor=#00CC00;" parent="OY_f9fm1xXbX0Lxp1W9--5" source="OY_f9fm1xXbX0Lxp1W9--23" target="OY_f9fm1xXbX0Lxp1W9--25" edge="1">
          <mxGeometry relative="1" as="geometry" />
        </mxCell>
        <mxCell id="OY_f9fm1xXbX0Lxp1W9--23" value="Nu is een link naar deze&amp;nbsp; inlevering op canvas&amp;nbsp; bruikbaar geworden als &lt;b&gt;portfolio item&lt;/b&gt;." style="rounded=1;whiteSpace=wrap;html=1;strokeColor=#00CC00;" parent="OY_f9fm1xXbX0Lxp1W9--5" vertex="1">
          <mxGeometry x="387.51" y="1330" width="145" height="80" as="geometry" />
        </mxCell>
        <mxCell id="OY_f9fm1xXbX0Lxp1W9--24" style="rounded=0;orthogonalLoop=1;jettySize=auto;html=1;endArrow=none;endFill=0;dashed=1;strokeColor=#00CC00;" parent="OY_f9fm1xXbX0Lxp1W9--5" source="OY_f9fm1xXbX0Lxp1W9--25" target="OY_f9fm1xXbX0Lxp1W9--28" edge="1">
          <mxGeometry relative="1" as="geometry" />
        </mxCell>
        <mxCell id="OY_f9fm1xXbX0Lxp1W9--25" value="Update je &lt;b&gt;verantwoordingsdocument&lt;/b&gt; ermee, met:&amp;nbsp;&lt;br&gt;1. &lt;b&gt;Naam&lt;/b&gt; van het item.&lt;br&gt;2. &lt;b&gt;Link&lt;/b&gt; naar de canvas entry&lt;br&gt;3. Kopie van je &lt;b&gt;samenvatting en docentfeedback&lt;/b&gt;." style="rounded=1;whiteSpace=wrap;html=1;strokeColor=#00CC00;" parent="OY_f9fm1xXbX0Lxp1W9--5" vertex="1">
          <mxGeometry x="316.89" y="1450" width="286.24" height="70" as="geometry" />
        </mxCell>
        <mxCell id="OY_f9fm1xXbX0Lxp1W9--26" style="edgeStyle=orthogonalEdgeStyle;rounded=0;orthogonalLoop=1;jettySize=auto;html=1;strokeColor=#00CC00;" parent="OY_f9fm1xXbX0Lxp1W9--5" source="OY_f9fm1xXbX0Lxp1W9--27" target="OY_f9fm1xXbX0Lxp1W9--23" edge="1">
          <mxGeometry relative="1" as="geometry" />
        </mxCell>
        <mxCell id="OY_f9fm1xXbX0Lxp1W9--27" value="Voeg een regeltje toe met &lt;b&gt;leerdoel-annotaties&lt;/b&gt; (@22:1)" style="rounded=1;whiteSpace=wrap;html=1;strokeColor=#00CC00;" parent="OY_f9fm1xXbX0Lxp1W9--5" vertex="1">
          <mxGeometry x="380" y="1260" width="160" height="40" as="geometry" />
        </mxCell>
        <mxCell id="OY_f9fm1xXbX0Lxp1W9--28" value="Als je de leerdoel-annotaties goed hebt bijgehouden, kun je profiteren van &lt;b&gt;automatisering&lt;/b&gt; van het verzamelen van portfolio items, en kun je dit uitstellen tot een paar dagen voor het peilmoment" style="shape=note;size=15;align=left;spacingLeft=10;html=1;whiteSpace=wrap;strokeColor=#00CC00;" parent="OY_f9fm1xXbX0Lxp1W9--5" vertex="1">
          <mxGeometry x="555" y="1270" width="160" height="160" as="geometry" />
        </mxCell>
        <mxCell id="OY_f9fm1xXbX0Lxp1W9--29" style="edgeStyle=orthogonalEdgeStyle;rounded=0;orthogonalLoop=1;jettySize=auto;html=1;strokeColor=#3333FF;" parent="OY_f9fm1xXbX0Lxp1W9--5" source="OY_f9fm1xXbX0Lxp1W9--30" target="OY_f9fm1xXbX0Lxp1W9--17" edge="1">
          <mxGeometry relative="1" as="geometry">
            <mxPoint x="460" y="1070" as="targetPoint" />
          </mxGeometry>
        </mxCell>
        <mxCell id="OY_f9fm1xXbX0Lxp1W9--30" value="&lt;b&gt;Copy en paste&lt;/b&gt; dat geheel in je canvas opdracht voor gegeven review feeback." style="rounded=1;whiteSpace=wrap;html=1;strokeColor=#3333FF;" parent="OY_f9fm1xXbX0Lxp1W9--5" vertex="1">
          <mxGeometry x="387.5" y="1070" width="145" height="60" as="geometry" />
        </mxCell>
        <mxCell id="OY_f9fm1xXbX0Lxp1W9--33" value="&lt;u&gt;Voorbeeld van canvas inlevering:&lt;br&gt;&lt;/u&gt;&lt;br&gt;&lt;font style=&quot;font-size: 13px;&quot;&gt;Gegeven Review Feedback&lt;/font&gt;&lt;br&gt;&lt;b&gt;Commentaren op opdracht&lt;br&gt;&lt;/b&gt;&lt;br&gt;&lt;b&gt;[jij]&lt;/b&gt;&lt;br&gt;Feedback &lt;b&gt;gegeven op&lt;/b&gt; Functionele Requirements van een Kas van Jantje.&lt;br&gt;&lt;br&gt;&lt;b&gt;Mijn feedback&lt;/b&gt; was:&lt;br&gt;* Je bent vergeten kwantificering toe te voegen.&lt;br style=&quot;border-color: var(--border-color);&quot;&gt;* De ratios die je gebruikt zijn anders verwoorde omschrijvingen. Probeer echt de redenen aan te geven waarom je iets wilt. Bijvoorbeeld automatische lichtregulatie wil je om de groei van planten te optimaliseren.&lt;br&gt;&lt;br&gt;Dit is de &lt;b&gt;samenvatting&lt;/b&gt; van Jantje &lt;b&gt;na verwerking&lt;/b&gt;:&lt;br&gt;&quot;Ik heb alle feedback ter harte genomen, behalve de tip over kwantificering. Kwantificering hoort immers thuis bij Niet-Functionele requirements.&lt;br&gt;&quot;&lt;br&gt;&lt;br&gt;Dit is de &lt;b&gt;link&lt;/b&gt; naar zijn canvas inlevering:&lt;br&gt;https://canvas.hu.nl/courses/12345/bla&lt;br&gt;&lt;br&gt;&lt;b&gt;[docent]&lt;/b&gt;&lt;br&gt;&lt;div&gt;👍&lt;/div&gt;&lt;div&gt;&lt;br&gt;&lt;/div&gt;&lt;div&gt;&lt;b&gt;[jij]&lt;/b&gt;&lt;/div&gt;&lt;div&gt;@27:0.2&lt;/div&gt;" style="shape=note;size=15;align=left;spacingLeft=10;html=1;whiteSpace=wrap;strokeColor=#CC00CC;connectable=0;" parent="OY_f9fm1xXbX0Lxp1W9--5" vertex="1">
          <mxGeometry x="760" y="880" width="300" height="470" as="geometry" />
        </mxCell>
        <mxCell id="hAB9dZT50ngWSqn2VE2v-0" value="De andere student verwerkt je review feedback, en stuurt je het volgende lijstje retour:&lt;br&gt;* De &lt;b&gt;naam&lt;/b&gt; van het item waar je feedback op gaf.&lt;br&gt;* &lt;b&gt;Je feedback&lt;/b&gt; daarop&amp;nbsp;&lt;br&gt;* &lt;b&gt;Zijn samenvatting&lt;/b&gt; van wat hij ermee heeft gedaan.&lt;br&gt;* De&amp;nbsp;&lt;b style=&quot;border-color: var(--border-color);&quot;&gt;link&lt;/b&gt;&amp;nbsp;naar zijn canvas-entry van het item." style="rounded=1;whiteSpace=wrap;html=1;strokeColor=#3333FF;align=left;" parent="OY_f9fm1xXbX0Lxp1W9--5" vertex="1">
          <mxGeometry x="310" y="933" width="300" height="102" as="geometry" />
        </mxCell>
        <mxCell id="YOZ034ARPv4mlfpeO0-V-2" value="De geassocieerde leerdoelen zijn gelijk aan die van de opdracht waar feedback op gegeven is.&amp;nbsp;" style="shape=note;size=15;align=left;spacingLeft=10;html=1;whiteSpace=wrap;" vertex="1" parent="OY_f9fm1xXbX0Lxp1W9--5">
          <mxGeometry x="760" y="1500" width="230" height="60" as="geometry" />
        </mxCell>
        <mxCell id="YOZ034ARPv4mlfpeO0-V-3" value="Met feedback geven maak je minder meters op een leerdoel dan met zelf doen. Voor een realistisch beeld kun je het best de toegekende score op een leerdoel beperken tot maximaal 0.2" style="shape=note;size=15;align=left;spacingLeft=10;html=1;whiteSpace=wrap;" vertex="1" parent="OY_f9fm1xXbX0Lxp1W9--5">
          <mxGeometry x="830" y="1390" width="230" height="90" as="geometry" />
        </mxCell>
        <mxCell id="YOZ034ARPv4mlfpeO0-V-4" value="" style="endArrow=none;dashed=1;html=1;rounded=0;" edge="1" parent="OY_f9fm1xXbX0Lxp1W9--5" target="YOZ034ARPv4mlfpeO0-V-3">
          <mxGeometry width="50" height="50" relative="1" as="geometry">
            <mxPoint x="820" y="1330" as="sourcePoint" />
            <mxPoint x="760" y="1110" as="targetPoint" />
          </mxGeometry>
        </mxCell>
        <mxCell id="YOZ034ARPv4mlfpeO0-V-5" value="" style="endArrow=none;dashed=1;html=1;rounded=0;entryX=0.142;entryY=-0.033;entryDx=0;entryDy=0;entryPerimeter=0;" edge="1" parent="OY_f9fm1xXbX0Lxp1W9--5" target="YOZ034ARPv4mlfpeO0-V-2">
          <mxGeometry width="50" height="50" relative="1" as="geometry">
            <mxPoint x="793" y="1340" as="sourcePoint" />
            <mxPoint x="901" y="1400" as="targetPoint" />
          </mxGeometry>
        </mxCell>
      </root>
    </mxGraphModel>
  </diagram>
  <diagram id="Xj7MPSZ3vc_YkHWAy0dy" name="obsolete">
    <mxGraphModel dx="-153" dy="1101" grid="1" gridSize="10" guides="1" tooltips="1" connect="1" arrows="1" fold="1" page="1" pageScale="1" pageWidth="1169" pageHeight="1654" math="0" shadow="0">
      <root>
        <mxCell id="0" />
        <mxCell id="1" parent="0" />
        <mxCell id="KES4eIkqWwBsY7Sk9BNq-1" value="IPortfolio Item" style="swimlane;fontStyle=0;childLayout=stackLayout;horizontal=1;startSize=26;fillColor=none;horizontalStack=0;resizeParent=1;resizeParentMax=0;resizeLast=0;collapsible=1;marginBottom=0;whiteSpace=wrap;html=1;" vertex="1" parent="1">
          <mxGeometry x="1790" y="180" width="190" height="52" as="geometry" />
        </mxCell>
        <mxCell id="KES4eIkqWwBsY7Sk9BNq-2" value="+ hasDocentenFeedback():bool" style="text;strokeColor=none;fillColor=none;align=left;verticalAlign=top;spacingLeft=4;spacingRight=4;overflow=hidden;rotatable=0;points=[[0,0.5],[1,0.5]];portConstraint=eastwest;whiteSpace=wrap;html=1;" vertex="1" parent="KES4eIkqWwBsY7Sk9BNq-1">
          <mxGeometry y="26" width="190" height="26" as="geometry" />
        </mxCell>
        <mxCell id="KES4eIkqWwBsY7Sk9BNq-3" value="Portfolio Item&lt;br&gt;van&amp;nbsp;&lt;br&gt;Oefenopdracht" style="swimlane;fontStyle=0;childLayout=stackLayout;horizontal=1;startSize=52;fillColor=none;horizontalStack=0;resizeParent=1;resizeParentMax=0;resizeLast=0;collapsible=1;marginBottom=0;whiteSpace=wrap;html=1;" vertex="1" parent="1">
          <mxGeometry x="1540" y="280" width="330" height="110" as="geometry" />
        </mxCell>
        <mxCell id="KES4eIkqWwBsY7Sk9BNq-4" value="+ isVoorDeadlineIngeleverd():bool&lt;br&gt;+ hasZichzelfNagekijkenEnLeerpuntenSamengevat():bool&lt;br&gt;+ hasDocentenFeedback():bool&amp;nbsp; // feedback = &quot;thumbs up&quot;" style="text;strokeColor=none;fillColor=none;align=left;verticalAlign=top;spacingLeft=4;spacingRight=4;overflow=hidden;rotatable=0;points=[[0,0.5],[1,0.5]];portConstraint=eastwest;whiteSpace=wrap;html=1;" vertex="1" parent="KES4eIkqWwBsY7Sk9BNq-3">
          <mxGeometry y="52" width="330" height="58" as="geometry" />
        </mxCell>
        <mxCell id="KES4eIkqWwBsY7Sk9BNq-5" value="Portfolio Item&lt;br&gt;van&amp;nbsp;&lt;br&gt;Project Onderdeel" style="swimlane;fontStyle=0;childLayout=stackLayout;horizontal=1;startSize=52;fillColor=none;horizontalStack=0;resizeParent=1;resizeParentMax=0;resizeLast=0;collapsible=1;marginBottom=0;whiteSpace=wrap;html=1;" vertex="1" parent="1">
          <mxGeometry x="1880" y="280" width="360" height="140" as="geometry" />
        </mxCell>
        <mxCell id="KES4eIkqWwBsY7Sk9BNq-6" value="+ hasReviewFeedbackToegevoegdVanAndereStudent():bool&lt;br&gt;+ hasReviewFeedbackVerwerktEnAangegeven&lt;br&gt;&amp;nbsp; &amp;nbsp; &amp;nbsp; &amp;nbsp; WatWelEnNietVerwerktEnWaarom():bool&lt;br&gt;+ hasOptioneelMondelingeDocentenFeedbackErbijGezet():bool&lt;br&gt;+ hasDocentenFeedback():bool&amp;nbsp; // feedback = &quot;thumbs up&quot;" style="text;strokeColor=none;fillColor=none;align=left;verticalAlign=top;spacingLeft=4;spacingRight=4;overflow=hidden;rotatable=0;points=[[0,0.5],[1,0.5]];portConstraint=eastwest;whiteSpace=wrap;html=1;" vertex="1" parent="KES4eIkqWwBsY7Sk9BNq-5">
          <mxGeometry y="52" width="360" height="88" as="geometry" />
        </mxCell>
        <mxCell id="KES4eIkqWwBsY7Sk9BNq-7" value="" style="shape=ellipse;html=1;fillColor=strokeColor;strokeWidth=2;verticalLabelPosition=bottom;verticalAlignment=top;perimeter=ellipsePerimeter;" vertex="1" parent="1">
          <mxGeometry x="1555" y="561" width="40" height="40" as="geometry" />
        </mxCell>
        <mxCell id="KES4eIkqWwBsY7Sk9BNq-8" value="Route:&lt;br&gt;Portfolio Item maken &lt;br&gt;van Projectbijdrage" style="text;html=1;strokeColor=none;fillColor=none;align=center;verticalAlign=middle;whiteSpace=wrap;rounded=0;" vertex="1" parent="1">
          <mxGeometry x="1510" y="511" width="130" height="30" as="geometry" />
        </mxCell>
      </root>
    </mxGraphModel>
  </diagram>
</mxfile>
